<svg xmlns="http://www.w3.org/2000/svg" xmlns:xlink="http://www.w3.org/1999/xlink" id="Calque_1" x="0px" y="0px" viewBox="0 0 108 101.7" style="enable-background:new 0 0 108 101.7;" xml:space="preserve"><style type="text/css">	.st0{fill-rule:evenodd;clip-rule:evenodd;fill:#CE2027;}	.st1{fill-rule:evenodd;clip-rule:evenodd;fill:#04743C;}	.st2{fill-rule:evenodd;clip-rule:evenodd;fill:#B46529;}</style><path class="st0" d="M72.2,0c-0.2,0.1-0.4,0.2-0.5,0.4c-0.4,0.6,0.1,1.1,2,1.8c1.3,0.5,2,0.8,3.4,1.6c5,2.5,9.5,5.8,13.5,9.8 c5.8,5.8,10.2,12.8,12.9,20.6c1.3,3.8,2.2,7.8,2.5,11.8c0.3,3.7,0.3,7.4,0,11.1c-0.5,5.2-1.8,10.2-3.8,15c-0.6,1.4-0.6,1.6-0.3,2 c0.2,0.2,0.4,0.4,0.7,0.5c0.8,0,3-5.8,4.1-10.8c0.7-3.1,1.1-6.3,1.3-9.4c0.1-1.6,0-5.8-0.1-7.3c-0.5-6.9-2.4-13.7-5.4-20 c-1.9-4-4.4-7.7-7.3-11.1c-1.9-2.4-4.1-4.6-6.5-6.6C84.6,5.8,80,3,75.1,0.9C73.4,0.2,72.6-0.1,72.2,0 M2.4,39.2 c-0.3,0.2-0.4,0.4-0.7,1.2C0.5,45.2-0.1,50.2,0,55.2c0,8.4,2,16.6,5.8,24.1C9.2,86,14,92,19.8,96.9c2.1,1.8,4.3,3.3,6.7,4.6 c0.3,0.1,0.7,0.1,1,0c0.2-0.2,0.4-0.5,0.4-0.8s-0.5-0.8-2.2-1.9c-3-2-5.7-4.2-8.2-6.8C9.2,83.7,3.9,73,2.4,61.4 C1.9,57.2,1.8,53,2.2,48.8c0.2-2.3,0.6-4.5,1.1-6.8c0.3-0.8,0.4-1.7,0.3-2.6C3.3,39.2,2.9,39,2.4,39.2"></path><path class="st1" d="M15.7,32.8c-0.4,0.3-1.1,1.5-2,3.7c-1.7,4.4-2.8,9.1-3.1,13.8c-0.1,2.3-0.1,4.5,0.1,6.8 c0.6,7.1,3,13.9,6.9,19.8c3.2,4.9,7.3,9.1,12.2,12.4c1.5,1,2.1,1.3,2.6,1.1c0.3-0.2,0.5-0.5,0.5-0.8c0-0.2,0-0.3-0.4-0.6 c-0.5-0.4-1-0.8-1.5-1.1c-3.3-2.2-6.2-4.8-8.7-7.8c-9.2-11-12.3-25.9-8-39.6c0.5-1.6,1.1-3.2,1.8-4.7c0.4-0.8,0.6-1.6,0.9-2.4 c0-0.3,0-0.3-0.2-0.5s-0.5-0.3-0.8-0.4C16,32.7,15.8,32.8,15.7,32.8 M90.7,32.8c-0.1,0.1-0.3,0.2-0.4,0.3c-0.2,0.2-0.2,0.2-0.2,0.5 c0.2,0.8,0.5,1.6,0.8,2.4c0.7,1.5,1.3,3.1,1.8,4.7c2,6.7,2.4,13.8,1.1,20.6c-2,10.1-7.6,19-15.8,25.3c-0.5,0.4-1.4,1-2,1.4 c-0.5,0.3-1,0.7-1.5,1.1c-0.3,0.3-0.4,0.4-0.4,0.6c0,0.3,0.2,0.6,0.5,0.8c0.5,0.2,1.1-0.1,2.6-1.1c4.1-2.8,7.7-6.3,10.7-10.3 c3.6-4.8,6.1-10.2,7.4-16c0.5-2,0.8-4,1-6c0.1-2.3,0.2-4.5,0.1-6.8c-0.2-3.3-0.8-6.5-1.7-9.7c-0.7-2.5-1.7-4.9-2.9-7.3 C91.5,32.7,91.2,32.6,90.7,32.8"></path><path class="st2" d="M52.2,5.2c-0.1,0-0.2,0-0.3,0c0,0,0,1.4,0,3l0,3l0.4,0c0.2,0,0.4,0,0.4-0.1c0,0,0-1.4,0-3c0.1-1,0-2-0.1-2.9 C52.5,5.2,52.4,5.2,52.2,5.2 M49.9,5.2l-0.4,0c0,0,0,1.2,0.1,2.6c0.1,1.5,0.1,2.6,0.1,2.6s-1.6,0.1-1.7,0.1c-0.1,0-0.1-0.4-0.3-1.7 c-0.1-0.8-0.1-1.5-0.2-1.5l-0.4,0l-0.4,0.1l0.3,2.2c0.1,0.8,0.2,1.7,0.2,2.5c-0.1,0.4-0.4,0.6-0.7,0.6l-0.3,0.1c0,0.2-0.1,0.5,0,0.7 l0.4,0c0.8-0.1,1.4-0.8,1.4-1.6l0-0.4l0.5-0.1c0.3,0,0.8-0.1,1.3-0.1c0.5,0,0.8-0.1,0.8-0.1c0-0.6-0.5-6-0.5-6L49.9,5.2 M44,7.9 L43.6,8L44,9.7c0.2,0.9,0.3,1.7,0.3,1.7c-0.1,0-0.2,0.1-0.4,0.1c-0.5,0.1-2.7,0.6-3.1,0.8c-0.1,0-0.2,0.1-0.4,0.1 c0,0-0.4-1.1-0.7-2.4c-0.4-1.3-0.8-2.4-0.8-2.5c0-0.1-0.1-0.1-0.4,0c-0.1,0-0.2,0.1-0.4,0.1c0,0.1,1.9,5.7,2,5.7 c0.3-0.1,0.5-0.1,0.8-0.2c0.9-0.3,2.6-0.7,3.7-1.1l0.8-0.2l-0.1-0.2l-0.4-2c-0.2-1-0.4-1.8-0.4-1.9C44.3,7.9,44.1,8,44,7.9  M58.2,6.4c0,0.1-0.1,0.3-0.1,0.4c0.1,0,0.3,0.1,0.4,0.1L58.9,7L59,6.6c0-0.1,0-0.3,0.1-0.4c-0.2-0.1-0.5-0.1-0.7-0.2 C58.3,6.1,58.2,6.3,58.2,6.4 M59.3,6.6L59.2,7l0.2,0l0.4,0L60,7l0.1-0.4c0-0.1,0.1-0.3,0.1-0.4c0,0-0.2-0.1-0.4-0.1L59.4,6L59.3,6.6  M57.1,7.9c-0.2,0.2-0.4,0.5-0.5,0.8c-0.3,0.9-0.4,1.8-0.5,2.7c0.4,0.1,4.1,0.6,4.2,0.5c0.1-0.3,0.4-2.2,0.4-2.6 c0.1-0.5-0.1-1-0.5-1.4C59.2,7.5,58.1,7.4,57.1,7.9 M57.6,8.7c-0.2,0.7-0.4,1.4-0.5,2.1c0.4,0.1,0.9,0.2,1.3,0.3l1.3,0.3l0.1-0.7 c0.4-1.6,0.2-2-0.7-2.2C58.2,8.2,57.7,8.3,57.6,8.7 M43.6,13.7l-0.3,0.1c0,0.3,0,0.6,0.1,0.8c0.2,0,0.5-0.1,0.7-0.1 c0-0.3,0-0.5-0.2-0.8C43.8,13.6,43.7,13.6,43.6,13.7 M34.2,9.6c-0.1,0-0.2,0.1-0.3,0.2c0,0.1,0.1,0.3,0.1,0.4l0.1,0.3l0.3-0.1 c0.2-0.1,0.3-0.2,0.4-0.2c0-0.1-0.1-0.3-0.1-0.4l-0.2-0.3L34.2,9.6 M42.5,13.9L42.2,14c0,0.3,0.1,0.5,0.1,0.8c0.3,0,0.5-0.1,0.7-0.2 c0-0.3-0.1-0.5-0.2-0.7C42.7,13.9,42.6,13.9,42.5,13.9 M50.7,18c-1,0-2.6,0.2-3.4,0.4c-5.6,1-10.8,3.4-15.3,6.9 C26.1,30,21.9,36.4,19.9,43.6c-0.7,2.7-1.1,5.4-1.1,8.1c-0.1,2.5,0,5,0.4,7.5c1.6,8.8,6.5,16.6,13.6,22c1.7,1.2,3.4,2.3,5.3,3.3 c4.7,2.3,8.2,3.2,14.1,3.3c4.2,0.3,8.4-0.3,12.3-1.7c3.8-1.4,7.4-3.4,10.6-6c1.5-1.3,3-2.8,4.3-4.3c3.5-4.2,6-9.2,7.3-14.5 c0.6-2.5,0.9-5.1,0.9-7.7c0-1.7,0-3.4-0.2-5.1c-0.3-2-0.7-3.9-1.3-5.8c-3.1-9.3-9.7-16.9-18.4-21.4c-3.4-1.7-7-2.8-10.8-3.2 C56,18,51.7,17.9,50.7,18 M62,10.5c-0.3,1.2-0.7,2.3-0.7,2.4c-0.1,0.1-0.2,0.2-0.4,0.3c-0.2,0.1-0.4,0.1-0.6,0L60,13.2l-0.1,0.3 c-0.1,0.1-0.1,0.3-0.1,0.3c0.1,0.1,0.2,0.1,0.3,0.2c0.7,0.2,1.5,0,1.9-0.7c0.1-0.2,1-3.9,1.2-4.5c0-0.1,0-0.2-0.3-0.3 c-0.1-0.1-0.3-0.1-0.4-0.1C62.5,8.3,62.3,9.3,62,10.5 M36.2,10.6c-0.7,0-1.3,0.3-1.8,0.8c-0.3,0.4-0.6,0.9-0.7,1.4 c0,0.1-0.1,0.2,0,0.1l-0.3-0.6l-0.2-0.6l-0.4,0.3l-0.4,0.2l0.7,1.6l0.7,1.6l-0.6,0.3c-0.3,0.1-0.6,0.3-0.9,0.5 c-0.1,0.1-0.2,0.1-0.3,0.2c0,0-0.4-0.7-0.9-1.5c-0.5-0.8-0.9-1.5-0.9-1.5c-0.7,0.4-1.4,0.8-2,1.3c-0.2,0.2-0.4,0.4-0.4,0.6 c-0.1,0.3-0.1,0.5,0,0.8c0.2,0.6,0.5,1.1,0.9,1.6c0.3,0.3,0.7,0.5,1.1,0.5c0.2,0,0.4-0.1,0.6-0.2c0.3-0.1,1.7-1,2.8-1.7 c0.1-0.1,1.4-0.7,2.9-1.3c1.5-0.6,2.6-1.2,2.6-1.2c-0.3-0.9-0.7-1.7-1.1-2.5C37.3,10.9,36.8,10.6,36.2,10.6 M64.5,10.1 c-0.5,1.5-0.9,2.8-0.9,2.8C63.7,13,63.8,13,64,13l0.3,0.1l0.9-2.5L66,7.8l0.1-0.3l-0.4-0.1c-0.1,0-0.2-0.1-0.4-0.1 C65.3,7.3,65,8.6,64.5,10.1 M49.9,18.8c-1.1,0-2.1,0.2-3.2,0.5c-1.2,0.3-3.9,1-5,1.5c-3.2,1.2-6.2,2.8-8.9,4.9 c-7.2,5.4-11.8,13.6-13,22.6c-0.3,1.6-0.4,3.3-0.4,4.9c0,1.7,0.1,3.4,0.5,5.1c1.5,9.6,7,18.2,15.2,23.5c2.5,1.6,5.2,2.9,8,3.8 c3.5,1.2,7.1,1.7,10.7,1.5c1.8,0,3.5-0.1,5.2-0.4c5.2-1,10.1-3.1,14.3-6.2c2.4-1.8,4.5-3.9,6.3-6.2c1.9-2.5,3.5-5.2,4.7-8.1 c0.9-2.3,1.7-4.7,2.2-7.2c0.4-2.5,0.5-5.1,0.4-7.6c0-2-0.3-3.9-0.8-5.8C83.4,34.9,76,26,65.9,21.5c-2.6-1.1-5.4-1.9-8.2-2.3 C55.1,18.8,52.5,18.8,49.9,18.8 M36.1,11.4c-0.6,0-1.1,0.4-1.4,0.9c-0.2,0.3-0.3,0.6-0.4,0.9l-0.2,0.7l0.2,0.6l0.2,0.6l1.4-0.6 l1.6-0.7l0.2-0.1l-0.1-0.2c-0.1-0.1-0.2-0.5-0.4-0.8C36.9,11.7,36.6,11.4,36.1,11.4 M67.8,8.8l-0.1,0.4l0.4,0.1l0.4,0.1l0.2-0.4 l0.1-0.4l-0.3-0.1c-0.1-0.1-0.2-0.1-0.4-0.1C67.8,8.5,67.9,8.7,67.8,8.8 M66.6,11.9c-0.5,1.1-0.9,2.1-1,2.2 c-0.1,0.1-0.3,0.2-0.4,0.3c-0.2,0.1-0.4,0.1-0.6,0c-0.1-0.1-0.2-0.1-0.4-0.1c-0.1,0.1-0.1,0.2-0.2,0.3l-0.1,0.3l0.3,0.2 c0.4,0.2,0.9,0.2,1.3,0c0.6-0.3,0.7-0.5,1.6-2.7c0.4-1.1,0.8-2,0.9-2.1c0-0.1,0-0.2-0.3-0.3c-0.1-0.1-0.2-0.1-0.4-0.1 C67.4,9.8,67,10.8,66.6,11.9 M28.4,12.8c-0.1,0.1-0.2,0.1-0.3,0.2c0.1,0.1,0.1,0.2,0.2,0.4l0.2,0.3l0.3-0.2c0.1-0.1,0.2-0.1,0.3-0.2 c-0.1-0.2-0.3-0.5-0.4-0.7C28.8,12.7,28.6,12.7,28.4,12.8 M27.5,13.4c-0.1,0.1-0.2,0.1-0.3,0.2c0,0.1,0.1,0.3,0.2,0.4l0.2,0.3 l0.3-0.2c0.1-0.1,0.2-0.1,0.3-0.2c-0.1-0.2-0.2-0.5-0.4-0.7C27.7,13.3,27.6,13.3,27.5,13.4 M69.2,11.2c-0.5,0.4-0.8,0.9-1,1.5 c-0.5,1.2-0.2,1.8,1.2,2.5c0.2,0.1,0.4,0.2,0.6,0.3c0,0.1-0.3,0.4-0.5,0.6c-0.3,0.2-0.9,0.1-1.8-0.5c-0.2-0.1-0.4-0.3-0.4-0.3 c-0.2,0.1-0.3,0.3-0.4,0.5c0.5,0.4,1,0.7,1.5,0.9c0.4,0.2,0.9,0.2,1.4,0.1c0.5-0.2,0.6-0.4,1.4-1.8l1-2l0.4-0.8l-1-0.5 c-0.4-0.2-0.8-0.4-1.2-0.5C70,10.9,69.6,11,69.2,11.2 M29.3,14.9c-1,0.7-1.1,0.8-0.6,1.7c0.2,0.4,0.5,0.8,0.8,1.1 c0.3,0.1,0.6,0,1.5-0.6l0.4-0.2l-0.8-1.2c-0.4-0.6-0.7-1.2-0.8-1.2C29.6,14.6,29.5,14.7,29.3,14.9 M69.2,12.3 c-0.2,0.3-0.3,0.5-0.4,0.8c-0.3,0.8-0.2,1,0.9,1.5c0.5,0.2,0.5,0.3,0.6,0.1c0.5-0.8,0.8-1.5,1.1-2.4c-0.4-0.2-0.9-0.4-1.4-0.6 C69.7,11.7,69.5,11.8,69.2,12.3 M50.9,25.6c-1,0.7-1.8,1.4-2.6,2.3c-0.3,0.3-0.6,0.6-0.8,0.8c-0.1-0.2-0.2-0.3-0.2-0.5 c-0.2-0.6-0.6-1-0.8-1c-0.4,0-1.3,0.9-1.5,1.4c-0.1,0.3-0.1,0.7,0,1c0,0.2,0.1,0.5,0.1,0.7l-1.5,0.8c-1.6,0.8-3.3,1.5-5.1,2 s-1.9,0.6-2.1,2.2c0,0.8-0.3,1.5-0.9,2.1c-0.5,0.6-0.3,0.8,0.4,0.4s0.9-0.7,0.9-1.8v-0.9l0.9-0.3c3.3-1,6.3-2.6,8.9-4.8l1.5-1.1 l0.4-0.3l0.5,0.2c0.2,0.1,0.4,0.2,0.6,0.3c0.3-0.1,0.5-0.3,0.7-0.5c0.1-0.2,0.1-0.5-0.1-0.9c-0.3-0.8-0.1-1.1,0.7-1.2 c0.6-0.1,0.7-0.1,0.9-0.3c0.4-0.3,0.2-0.7-0.4-0.8C51.3,25.4,51.1,25.5,50.9,25.6 M58.2,26.5c-0.4,0.5-0.7,1.1-0.8,1.7 c-0.4,1-0.8,1.4-1.4,1.2s-0.5-0.3-0.2-1.3c0.1-0.2,0.1-0.4,0.2-0.6c-0.2,0.1-0.5,0.3-0.7,0.5c-0.3,0.3-0.7,0.5-1,0.7 c-0.4,0.2-0.9,0.4-1.4,0.4c-0.1,0-0.2,0-0.3,0c-0.1,0.1,0.6,0.6,0.9,0.6c0.2,0,0.4-0.1,0.7-0.2c0.6-0.2,0.6-0.2,0.7,0.2 c0.2,1,1.1,1,2,0.1c0.8-1.1,1.3-2.2,1.6-3.5C58.6,26.2,58.4,26.3,58.2,26.5 M60.3,26.9c-0.5,0.8-0.8,1.6-1,2.5c0,0.3,0,0.3,0.1,0.4 s0.2,0,0.3-0.1c0.5-0.8,0.8-1.7,1-2.6C60.6,26.8,60.5,26.7,60.3,26.9 M63.9,27.6c-0.1,0.1-0.2,0.2-0.3,0.3c-0.1,0.3,0,0.5,0.2,0.8 c0.1,0.1,0.2,0.1,0.4,0.1c0.4-0.1,0.6-0.1,0.8,0.1c0.5,0.4,1.3-0.1,0.8-0.6c-0.1-0.2-0.2-0.2-0.6-0.2h-0.4l-0.2-0.3 C64.4,27.5,64.3,27.5,63.9,27.6 M41.7,27.8c-0.1,0.3-0.1,0.6,0,0.8c0.2,0.2,0.4,0.2,0.6,0c0.2-0.2,0.3-0.4,0.3-0.7 c-0.1-0.2-0.3-0.3-0.5-0.3S41.8,27.7,41.7,27.8 M40.7,28.5c-0.3,0.3-0.2,1,0.3,1c0.3-0.1,0.5-0.3,0.5-0.6c0-0.2-0.1-0.3-0.2-0.4 C41.1,28.3,41,28.3,40.7,28.5 M45.8,28.9c-0.2,0.2,0.1,0.4,0.4,0.4s0.2-0.2,0-0.3S45.9,28.8,45.8,28.9 M50.4,30.6l-0.2,0.2 c-0.1,0.2-0.3,0.3-0.4,0.3c-0.6,0.3-0.8,0.7-0.6,1c0.1,0.1,0.2,0.2,0.3,0.2c0.2,0,0.5-0.2,0.5-0.3s0.2-0.3,0.5-0.2 c0.1,0,0.2,0,0.3,0c0.2-0.2,0.3-0.5,0.3-0.8c0-0.2-0.2-0.3-0.4-0.4S50.4,30.5,50.4,30.6 M64.2,30.8c-0.5,0.2-0.9,0.5-1.3,0.8 c-0.1,0.1,0,0.1,0.4,0s0.5,0,0.8,0.1c0.2,0.1,0.3,0.2,0.4,0.3c0.3,0.3,0.8,0.5,1.3,0.4c0.4,0,0.8-0.2,1.1-0.4c0.7-0.4,0.7-0.4,0-0.4 s-1.4-0.3-1.9-0.8C64.8,30.7,64.5,30.6,64.2,30.8 M53.2,31.5c0,0-0.1,0.4-0.1,0.9c-0.2,1-0.3,1.5-0.4,1.5c-0.2-0.1-0.3-0.2-0.4-0.4 c-0.2-0.2-0.3-0.3-0.4-0.3c-0.1,0.2-0.1,0.4-0.1,0.6s0,0.4-0.1,0.6c-0.1,0.1-0.4-0.2-1.5-1.4c-0.1-0.1-0.2-0.2-0.2-0.2 s0.1,0.4,0.2,0.8c0.2,0.9,0.3,1.3,0.2,1.3c-0.2-0.1-0.5-0.3-0.7-0.4c-0.2-0.2-0.4-0.3-0.7-0.4c-0.1,0-0.1,0.2,0,0.6 c0.2,0.7,0.3,0.9,0.2,0.9c-0.7-0.3-1.4-0.7-2.1-1.1c-0.5-0.3-0.9-0.5-1-0.5s0.1,0.2,0.3,0.4c0.5,0.7,1,1.3,1.5,2.1 c0,0.1,0,0.2,0,0.2c-0.2,0-0.4,0-0.5-0.1c-0.2-0.1-0.4-0.1-0.5-0.1c0,0,0.1,0.2,0.5,0.4s0.2,0.3-1.2,0.3c-0.4,0-0.8,0-1.2,0.1 c0,0,0.4,0.2,0.9,0.4c1.1,0.5,1.6,0.8,1.5,1c-0.1,0.1-0.2,0.1-0.3,0.1c-0.5,0.1-0.6,0.1-0.6,0.2c-0.1,0.1,0.1,0.4,0.4,0.4 c0.6,0,0.4,0.3-0.5,0.8l-0.7,0.4c-0.1,0.1,0.2,0.1,0.9-0.1c0.5-0.1,1.1-0.2,1.6-0.2c0.4-0.1,0.8,0,1.2,0.1c0.2,0.1,0.4,0.2,0.4,0.2 s-0.3,0.2-0.9,0.5c-0.7,0.3-1.4,0.3-2.1,0.1c-1.1-0.2-2.2-0.3-3.3-0.2c-1.1,0-1.2,0-1.5,0.2c-0.4,0.2-0.8,0.5-1.1,0.8 c-0.6,0.6-1.3,1.1-2,1.5c-0.2,0-0.3,0.2-0.2,0.4V44c0.1,0.3,0.6,0,2.1-1.2c1.3-1,2-1.5,2.5-1.5c0.1,0,0.2,0.1,0.3,0.1 c0.1,0.1,0.1,0.1,0,0.3c-0.9,1-2,1.8-3.2,2.3c-1.1,0.6-1.3,0.7-1.2,0.8s0.5,0,1.3-0.2c1.2-0.3,1.7-0.6,3.4-2.2 c0.8-0.7,1-0.9,1.1-0.9l1.6,0.1c0.8,0.1,1.6,0.1,1.9,0.1c0.7,0,0.9-0.2,1.7-0.9l0.6-0.6L50,40c-0.3-0.1-0.7-0.2-1-0.3 c-0.1-0.1-0.1-0.1,0-0.6c0.1-0.3,0.2-0.7,0.4-1c0.2-0.5,0.5-0.9,0.9-1.2c0.5-0.6,1.1-1,1.8-1.3c0.5-0.1,1.1-0.2,1.6-0.1 c1.4,0,1.7,0.1,2.3,0.5c1,0.8,1.8,1.8,2.2,3c0.1,0.5,0.1,0.5-1.2,1.3c-0.2,0.1-0.3,0.2-0.3,0.3s0.4,0.2,1,0c0.9-0.3,1.8-0.5,2.7-0.4 c0.4,0,0.9,0,1.4,0c0,0-0.6-0.2-1.3-0.3c-0.4-0.1-0.9-0.2-1.3-0.3c0,0,0.3-0.2,0.6-0.4c0.2-0.1,0.4-0.2,0.6-0.4c0,0-0.2-0.1-0.4-0.1 s-0.3,0-0.5-0.1c-0.1-0.1,0.4-0.5,1.2-1c0.2-0.1,0.5-0.3,0.7-0.4c-0.4,0-0.9,0-1.3,0.1l-1.6-0.2l0.3-0.4c0.8-0.9,0.8-0.8,0-0.7 c-0.6,0.1-0.7,0.1-0.7,0c0.1-0.3,0.3-0.6,0.5-0.8c0.7-1,0.7-0.9,0.5-0.8L58.2,35l-0.8,0.5c0-0.1-0.1-0.3-0.1-0.4 c0-0.4,0-0.4-0.2-0.4s-0.3,0.1-0.5,0.2C56.5,35,56.4,35,56.3,35c0-0.2,0-0.4,0-0.7s0.1-0.8,0.1-1s0-0.4-0.1-0.4s-0.3,0.3-0.5,0.7 c-0.3,0.6-0.7,0.8-0.8,0.5c0-0.2-0.1-0.4-0.1-0.5c0-0.2,0-0.3-0.1-0.4c-0.1,0-0.4,0.3-0.7,0.7c-0.1,0.2-0.2,0.3-0.3,0.2 c0,0-0.2-0.5-0.4-1.2C53.3,31.8,53.1,31.4,53.2,31.5 M62,33.1c-0.1,0.1-0.1,0.3-0.1,0.4c0,0.4,0.1,0.5,0.5,0.6 c0.4,0,0.5,0.1,0.5,0.2s0.7,0.4,0.9,0.2s0.2-0.5,0-0.7c-0.1-0.1-0.2-0.1-0.6-0.2s-0.4,0-0.4-0.3c0-0.2-0.2-0.4-0.4-0.4 c-0.1,0-0.2,0-0.3,0.1 M73.1,33.4l-0.3,0.3c0,0.1-0.1,0.1-0.2,0.1c-0.2-0.1-0.1,0.1,0.2,0.3s0.6,0.4,0.8,0.4c0.2,0,0.1-0.1,0.1-0.4 c0-0.3,0-0.3,0.1-0.4s0.2-0.2,0-0.4C73.5,33.2,73.4,33.1,73.1,33.4 M32.2,33.5c-0.2,0.3,1.1,2,1.8,2.4c0.3,0.2,0.6,0.2,0.6,0.1 c-0.6-1-1.4-1.8-2.2-2.5C32.3,33.5,32.3,33.5,32.2,33.5 M66.7,34c-0.2,0.2,0.2,0.8,0.8,1.2c0.3,0.2,0.7,0.3,1,0.2 c0.5-0.2,1.1-0.2,1.6,0c0.4,0.1,0.8,0.2,1.2,0.1c0.8,0,1.1-0.1,1.4-0.3s0.1-0.3-0.3-0.2s-0.8,0.1-1.1,0c-0.5-0.1-1.1-0.2-1.7-0.2 c-1.5-0.1-1.8-0.1-2.3-0.5C67,34,66.8,34,66.7,34 M74.9,36.2c-0.7,0.2-1.4,0.6-2,1c-0.3,0.3-0.2,0.4,0.2,0.4c0.9-0.2,1.7-0.5,2.5-1 c0.1-0.1,0.1-0.2,0.1-0.3c0,0,0-0.1-0.1-0.1C75.4,36,75.3,36.1,74.9,36.2 M31,37.6c-0.3,0.3-0.4,0.8-0.3,1.3c0,0.4,0,0.5,0,0.5 c-0.3-0.2-0.6-0.4-0.8-0.7c-0.7-0.7-1-0.8-1-0.5s0.8,1.2,1.5,1.8s0.9,1,0.3,1.3c-0.4,0.2-0.5,0.4-0.6,1.9c-0.2,2-0.9,3.9-2.1,5.5 c-0.3,0.4-0.5,0.8-0.6,0.9s-0.1,0.2,0,0.5c0.4,0.7,0.9,1.3,1.5,1.8c0.1,0,0.1-0.1-0.2-0.6c-0.2-0.5-0.2-0.5-0.1-0.7 c0.2-0.4,0.4-0.8,0.7-1.2c1.1-1.9,1.3-2.3,1.5-5.1c0-0.7,0.1-1.3,0.3-1.9c0.1-0.1,0.3-0.1,0.4-0.2c0.7-0.2,1.1-0.8,1.3-1.9 c0.1-0.6,0-1.2-0.2-1.8c-0.2-0.4-0.8-1-1-1C31.3,37.4,31.1,37.5,31,37.6 M71,37.6c0,0.1,0.1,0.4,0.1,0.7c0.3,1.2,0.5,1.6,0.9,1.8 c0.3,0.1,0.5,0.1,0.8,0.2c0.7,0.1,0.8,0.1,1,0.5c0.1,0.4,0.3,0.8,0.3,1.3c0.2,1,0.5,2,1,3c0.9,2,2.3,3.7,4,5.1 c0.2,0.2,0.5,0.3,0.7,0.5c0-0.2,0-0.4-0.1-0.6c0-0.2-0.1-0.4-0.1-0.6c0.1,0.1,0.2,0.2,0.2,0.3c0.6,0.9,1.3,1.8,2.1,2.5 c0.2,0,0.1-0.3-0.4-1.3c-0.3-0.6-0.6-1.2-0.8-1.9c-0.3-0.5-0.7-1-1.2-1.3s-0.7-0.4-0.9-0.3s-0.1,0.1-0.1,0.5s0,0.5,0.1,0.6 s0,0.2-0.2-0.1c-1.8-1.9-2.9-4.4-3.1-7c-0.2-1.3-0.2-1.3-1.1-1.5c-1.1-0.2-1.3-0.4-2.5-1.5C71.2,37.8,70.9,37.5,71,37.6 M31.3,38.4 c-0.2,0.3,0.1,1.9,0.4,1.9c0.3,0,0.4-1.1,0.3-1.5c-0.1-0.2-0.4-0.5-0.5-0.5S31.4,38.3,31.3,38.4 M76.1,38.4 c-0.2,0.2-0.2,0.6,0.1,0.8c0.1,0.1,0.2,0.1,0.3,0.1c0.4,0,0.6-0.4,0.4-0.8c-0.1-0.2-0.4-0.3-0.6-0.2C76.2,38.3,76.2,38.3,76.1,38.4  M52.8,38.4c-0.2,0.1-0.4,0.3-0.5,0.5c-0.1,0.3-0.2,0.5-0.2,0.8c-0.1,0.6-0.2,0.8-0.4,0.8c-0.4,0-0.7,0.1-1,0.3 c-0.2,0.1-0.4,0.3-0.5,0.5c-0.1,0.3-0.1,0.4-0.2,3.2v2.9h-0.7c-0.4,0-0.7,0.1-1.1,0.1c-0.4,0.1-0.7,0.3-0.8,0.7 c0,0.2,0.2,0.5,0.8,1.2s0.7,0.9,0.6,1c-0.1,0-0.2,0.1-0.3,0.1c-0.3,0-0.3,0-0.7-0.6s-0.6-0.7-0.7-0.6c-0.2,0.1-0.1,0.4,0.2,0.7 c0.3,0.5,0.4,1,0.5,1.5c0,0.5,0.1,1,0.3,1.4c0.2,0.3,0.4,0.5,0.5,0.4c0-0.2,0-0.4-0.1-0.6c-0.1-0.6-0.1-0.7,0.1-0.7s0.5,0.4,0.5,0.8 c0.1,0.5,0.2,1,0.5,1.5c0.2,0.4,0.5,0.7,0.7,0.7s0.1,0,0.1-0.4c0-0.3-0.1-0.6-0.2-0.8c-0.1-0.3-0.2-0.5-0.2-0.5s0.1,0,0.2,0.1 c0.5,0.3,0.8,0.7,1.1,1.2c0.5,0.7,0.8,1,1,1s0.3-0.3-0.2-0.9c-0.1-0.1-0.2-0.2-0.2-0.3c0.2,0,0.4,0.1,0.5,0.2 c0.7,0.2,1.5,0.3,1.6,0.2s-0.2-0.5-1.2-0.7C52.3,54,52,53.9,52,53.8s0.4-0.2,0.8-0.2s0.8-0.1,0.8-0.2s-0.8-0.5-1.2-0.5 c-0.3,0.1-0.5,0.2-0.8,0.3c-0.2,0.1-0.4,0.2-0.7,0.2c-0.2,0-0.4-0.2-0.4-0.3s0.2-0.3,0.6-0.4c0.4-0.1,0.7-0.3,0.7-0.6 c0-0.2-0.2-0.2-1-0.2c-0.8,0.1-1.3,0-1.3-0.1s0-0.1,0.5-0.2c0.5-0.1,0.8-0.2,0.8-0.3s-0.1-0.3-0.5-0.5s-0.7-0.5-0.7-0.6 c-0.1-0.4-0.3-0.8-0.6-1.1c-0.2-0.2-0.3-0.5-0.4-0.7c-0.1-0.2-0.1-0.2,0-0.3c0.5-0.1,1-0.1,1.5,0c0.2,0.1,0.3,0.1,0.5,0.2 c0.3,0.1,0.3,0,0.4-3.3c0-3.6,0.1-3.9,0.5-4c0.6-0.1,0.9,0.7,1,2.5c0,1,0.1,1.4,0.2,0.9c0-0.2,0.1-0.9,0.1-1.7 c0.2-3.2,0.2-3.6,0.9-3.8c0.4-0.1,0.6,0.2,0.7,1c0.1,0.9,0.1,1.8,0.2,2.7c-0.1,1,0,2,0.2,3c0.1,0,0.1-0.3,0.2-1.7 c0-2.1,0.2-2.7,0.6-2.8c0.3-0.1,0.6,0,0.7,0.3c0.2,1.5,0.2,3,0.1,4.5c0,1.3,0,2.4,0,2.4l0.5-0.2c0.9-0.5,2.3-0.7,2.3-0.4 c-0.1,0.1-0.1,0.3-0.2,0.4c-0.3,0.4-0.5,0.8-0.7,1.2c-0.2,0.8-0.2,0.8-0.4,0.9c-0.2,0.2-0.5,0.4-0.4,0.6c0.1,0.2,0.8,0.4,1.2,0 c0.1-0.1,0.3-0.2,0.5-0.2c0.5,0,0.6,0.1,0.6,0.7c0,0.6,0.1,0.6,0.2,0.6s0.3-0.3,0.2-1.5c0-1,0-1.1,0.1-1.2c0.1-0.1,0.1-0.1,0.2,0.1 c0.1,0.2,0.1,0.4,0.2,0.6c0.2,0.9,0.7,0.8,0.7-0.1c0-0.4-0.1-0.9-0.3-1.2c-0.3-0.4-0.4-0.6-0.3-1.8c0-0.7,0-1-0.2-1 s-0.7,0.3-0.8,0.8c0,0.2-0.1,0.4-0.1,0.6c-0.1,0.1-0.3,0.1-0.4,0c-0.1-0.1-0.2-0.2-0.4-0.2c-0.6-0.1-1.2-0.1-1.8,0 c-0.3,0.1-0.4,0.1-0.5-0.1c0,0,0-1.2-0.1-2.6c0-1.6-0.1-2.7-0.1-2.8c-0.1-0.3-0.4-0.6-0.8-0.7c-0.2-0.1-0.5-0.2-0.7-0.1 c-0.1,0-0.3,0-0.4,0c-0.1-0.1-0.1-0.2-0.1-0.4c0-1-0.5-1.8-1.3-1.8C53.1,38.3,52.9,38.3,52.8,38.4 M67.6,39.3 c0.1,0.3,0.3,0.6,0.5,0.8s0.3,0.1,0.2-0.1C68.3,39.8,67.6,39.2,67.6,39.3 M68.8,39.9c-0.1,0.5-0.1,0.9,0,1.4c0,0.1,0.1,0.2,0.2,0.2 c0.4,0,0.5-0.7,0.1-1.4C69,39.9,68.9,39.8,68.8,39.9 M66.9,40c0.1,0.4,0.3,0.7,0.7,0.9c0.2,0,0.1-0.2-0.2-0.6 C67,39.9,66.9,39.9,66.9,40 M63.4,40.9c0.2,0.4,0.4,0.8,0.8,1.2c0.1,0.1,0.1-0.2-0.2-0.6c-0.1-0.2-0.2-0.3-0.3-0.5 C63.6,40.9,63.4,40.8,63.4,40.9 M65.3,41c0,0.5,0,1.1,0.1,1.6c0.1,0.3,0.3,0.3,0.4,0.1c0.1-0.5,0.1-1.1-0.2-1.6 C65.4,40.9,65.3,40.9,65.3,41 M66.7,41.2c0.1,0.3,0.3,0.6,0.5,0.8s0.5,0.3,0.8,0.4c0.2,0,0.4-0.2,0.4-0.4s-0.3-0.4-0.7-0.5 c-0.2,0-0.4-0.1-0.7-0.2C66.8,41.1,66.7,41.1,66.7,41.2 M70,41.8c-0.2,0.2-0.2,0.4-0.2,0.7c0,0.4,0.2,0.6,0.4,0.6s0.3-0.2,0.3-0.6 C70.5,41.8,70.3,41.5,70,41.8 M35.8,42.1c-0.3,0.4-0.6,0.8-0.7,1.3c-0.2,0.9-0.3,1.8-0.3,2.7c0,1,0.2,1.8,0.4,1.8s0.3-0.6,0.6-1.7 c0.4-1.4,0.6-2.8,0.5-4.2C36.3,41.8,36.1,41.8,35.8,42.1 M63.1,41.9c0.3,0.6,0.7,1,1.3,1.4c0.4,0.2,0.5,0.1,0.5-0.3 s-0.2-0.4-0.6-0.6c-0.3-0.1-0.5-0.2-0.8-0.4S63.1,41.8,63.1,41.9 M68.9,42.6c-0.1,0.2,0.3,1,0.5,1s0.3-0.6,0-0.9S69,42.4,68.9,42.6  M66.1,42.9c-0.1,0.3-0.1,0.7,0,1c0.2,0.5,0.5,0.2,0.5-0.4C66.6,42.8,66.2,42.4,66.1,42.9 M62.1,42.8c0,0.5,0,1,0.2,1.5 c0,0.1,0.1,0.2,0.2,0.2s0.3-0.4,0.3-0.6c0-0.4-0.2-0.7-0.4-1C62.2,42.7,62.2,42.7,62.1,42.8 M70.8,43.1c0,0.2,0,0.4,0,0.6 c0,0.5-0.1,0.5-0.5,0.5s-0.5,0-0.4,0.3c0,0.1,0,0.2,0,0.3c-0.2,0-0.4-0.1-0.5-0.2c-0.2-0.1-0.4-0.2-0.6-0.2c-0.1,0-0.1,0.5,0,0.7 c0.1,0.1,0.2,0.2,0.3,0.3c0.1,0.1,0.3,0.2,0.5,0.1c0.5-0.1,1-0.4,1.3-0.8c0.7-0.7,0.8-0.9,0.5-1.3c-0.1-0.2-0.3-0.4-0.5-0.6 C70.9,42.8,70.8,42.9,70.8,43.1 M68.1,43.1c-0.1,0-0.2,0.1-0.2,0.2c-0.1,0.2,0.5,0.8,0.8,0.8s0.3-0.3,0.1-0.6 C68.7,43.3,68.4,43,68.1,43.1L68.1,43.1 M60.5,43.2c0,0.3,0.3,0.7,0.5,0.5C61.1,43.5,60.7,43.1,60.5,43.2 C60.5,43.1,60.6,43.2,60.5,43.2 M32.4,43.5c-0.1,0.2-0.1,0.4-0.1,0.6v0.4H32c-0.2,0-0.3,0.1-0.3,0.2c0,0.3,0.1,0.6,0.3,0.9 c0.2,0.1,0.4,0.1,0.7,0c0-0.1,0.1-0.2,0-0.4c-0.1-0.3,0-0.6,0.3-0.8c0.2-0.2,0.2-0.6,0-0.8C32.8,43.3,32.5,43.2,32.4,43.5  M64.6,43.9c-0.1,0.1-0.1,0.3,0.2,0.6c0.5,0.6,1.1,0.6,1.1,0C65.9,44.1,64.9,43.6,64.6,43.9 M60,44c0.2,0.5,0.6,1,1.1,1.3 c0.4,0.1,0.8,0,0.8-0.2s-0.4-0.6-0.7-0.7l-0.5-0.1c-0.2,0-0.3-0.1-0.4-0.2C60,43.8,59.9,43.8,60,44 M67,44.2c-0.1,0.4-0.1,0.8,0,1.1 c0.2,0.2,0.4,0.1,0.5-0.2c0.1-0.2,0.1-0.3,0-0.5c-0.1-0.3-0.3-0.6-0.4-0.6S67,44.1,67,44.2 M44,45.1c0,0.4,0,0.8,0.2,1.2 s0.3,0.4,0.6-0.3c0.2-0.5,0.3-0.1,0.6,1.1c0.1,0.4,0.2,0.8,0.2,0.8c0-0.2,0.1-0.4,0.1-0.6c0.1-0.5,0-1.1-0.2-1.5 c-0.4-0.5-0.8-1-1.3-1.4C44,44.5,44,44.8,44,45.1 M63.5,44.5c0,0.2,0,0.5,0,0.7c0,0.5,0,0.7,0.1,0.8c0.2,0.3,0.6-0.1,0.6-0.6 c0-0.3-0.1-0.6-0.4-0.8C63.7,44.4,63.6,44.4,63.5,44.5 M71.7,44.5c-0.1,0.2-0.1,0.4-0.1,0.6c0,0.2,0,0.4-0.1,0.6c0,0-0.1,0.1-0.3,0 c-0.3,0-0.5,0.1-0.4,0.4c0.1,0.7,0.8,0.6,1.3-0.2c0.2-0.2,0.3-0.4,0.3-0.7c0-0.5-0.1-0.8-0.4-0.8C71.8,44.4,71.7,44.4,71.7,44.5  M36.8,44.8c0,0.1-0.3,0.9-0.7,1.8c-0.2,0.9-0.6,1.7-1,2.5c0,0-0.1-0.2-0.1-0.4c-0.1-0.4-0.1-0.4-0.2,0c0,0.2-0.1,0.3-0.1,0.2 c-0.1-0.6-0.1-1.1-0.1-1.7c-0.1-2-0.2-2.5-0.4-2.5s-0.4,0.4-0.5,0.9c-0.1,0.9,0,1.9,0.2,2.7c0.1,0.5,0.2,1,0.3,1.5 c0.1,0.8,0.1,1.7,0,2.5c-0.1,0.1-0.2-0.3-0.2-1c0-0.3-0.1-0.9-0.1-1.3c0-0.3-0.1-0.7-0.2-1c-0.1-0.3-0.3-0.7-0.4-0.7 c-0.2,0.3-0.3,0.6-0.4,1c-0.1,1.1,0.1,2.2,0.7,3.2c0.4,0.8,0.7,1.6,0.7,2.4c0,0.3,0,0.5-0.1,0.4s-0.2-0.5-0.4-1 c-0.7-1.8-1.2-2.4-1.5-2.1c-0.1,0.5-0.1,1,0,1.4c0.3,0.9,0.8,1.6,1.4,2.3c0.5,0.8,0.9,1.6,1.2,2.5c0.3,1.1,0.4,1.2,0.2,1.2 s-0.5-0.4-1.3-2.2c-0.4-0.8-0.8-1.5-0.8-1.6c-0.2-0.2-0.2,0-0.2,0.8c0,0.4,0,0.8,0.2,1.2c0.3,0.9,1,1.7,1.8,2.3 c0.5,0.2,0.9,0.6,1.2,1c0.8,1,1.4,2.5,1.2,2.5s-0.5-0.3-1.3-1.3c-0.7-0.8-1.4-1.6-2.1-2.3c0,0,0,0.1,0.1,0.3s0.3,0.7,0.5,1.2 c0.7,1.7,1.2,2.5,1.8,2.7c0.3,0.1,0.5,0.2,0.8,0.2c0.7,0.1,1.4,0.4,1.9,0.9c0.3,0.2,0.5,0.2,0.6,0.1c0-0.2,0-0.4-0.1-0.5 c-0.2-0.6-0.4-1.2-0.3-1.8c-0.1-1.4-0.4-2.8-0.9-4.2c-0.3-0.7-0.3-0.5-0.3,1.2c-0.1,1,0,1.9,0.3,2.9c0,0.1,0.1,0.3,0.1,0.4 c0,0.2-0.5-0.3-0.8-0.9c-0.7-1.2-0.7-2.7-0.1-4c0.9-2.5,1.1-3.2,1-4c-0.1-0.5-0.2-0.9-0.3-0.9s-0.1,0.2-0.2,0.3 c-0.1,0.3-0.2,0.6-0.3,0.9c-0.4,1-0.8,2.1-1,3.2l-0.3,1.3l-0.1-0.4c-0.1-0.3-0.1-0.7-0.1-1c0-0.7,0-0.9,0.7-2.4 c0.5-0.8,0.8-1.7,0.9-2.7c0-0.5-0.1-0.5-0.5-0.1c-0.8,0.8-1.3,1.9-1.4,3.1c0,0.2-0.1,0.4-0.1,0.6l-0.1,0.2l-0.1-0.2 c-0.1-0.5-0.2-1-0.1-1.4c0.1-0.5,0.4-1,0.7-1.5c0.8-1.3,1.3-2.8,1.5-4.4c0-0.5-0.1-0.5-0.4-0.2c-0.6,0.9-1,1.8-1.3,2.8 c-0.4,1.2-0.6,1.7-0.7,1.7s-0.1-0.4-0.1-0.8c0.1-1.1,0.5-2.2,1.1-3.2c0.7-1.2,1.2-2.5,1.4-3.8C37.2,44.9,37,44.4,36.8,44.8  M40.6,45.1c-0.5,0-1,0.1-1.4,0.2c-0.1,0-0.1,0.1-0.1,0.2c0,0.2,0.4,0.3,1.3,0.3c0.5,0,1-0.1,1.5-0.3c0.3-0.1,0.4-0.3,0.1-0.4 C41.5,45.1,41.1,45.1,40.6,45.1 M65.4,45.1c-0.2,0.2,0.1,0.7,0.7,0.8c0.4,0.1,0.7,0.1,0.7-0.2C66.9,45.4,65.7,44.8,65.4,45.1  M67.7,45.3c-0.2,0.4-0.1,0.9,0.1,1.3c0.1,0.1,0.4,0,0.5-0.3s-0.1-1.2-0.4-1.2C67.9,45.1,67.8,45.2,67.7,45.3 M62.6,45.6 c-0.1,0.2-0.1,0.4,0,0.6c0.2,0.3,0.8,0.4,0.9,0.2s-0.1-0.4-0.4-0.7C62.8,45.5,62.7,45.5,62.6,45.6 M69.5,45.9 c-0.1,0.2,0.1,0.5,0.5,0.8s0.6,0.4,0.7,0.3c0.2-0.1,0.2-0.5,0-0.7c-0.2-0.3-0.6-0.5-0.9-0.6C69.5,45.8,69.5,45.8,69.5,45.9  M64.5,46.1c0,0.2,0,0.5,0,0.7c0,0.4,0,0.5,0.2,0.6c0.4,0.4,0.9-0.1,0.8-0.8c-0.1-0.3-0.5-0.7-0.7-0.7S64.5,45.9,64.5,46.1  M61.3,46.1c-0.1,0.2,0,0.4,0.3,0.7s0.7,0.4,0.8,0.2s0.1-0.5,0-0.7c-0.1-0.1-0.2-0.2-0.3-0.2C61.9,46,61.6,46,61.3,46.1 M42.5,46.4 c-0.1,0.5-0.2,1-0.3,1.4c0,0.7-0.2,1.4-0.4,2c-0.2,0.5-0.3,0.3-0.4-0.3c-0.2-1.1-0.2-1.3-0.3-1.4c-0.2-0.3-0.4,0-0.4,0.8 s0,0.8-0.3,0.8c-0.4,0-0.7-0.1-1-0.3C39.2,49.2,39.2,49,39,48c0-0.3-0.1-0.7-0.2-1c-0.1-0.2-0.2-0.3-0.3-0.2 c-0.2,0.6-0.2,1.2-0.2,1.8c0.1,0.8-0.1,1.6-0.4,2.3c-0.1,0.2-0.2,0.3-0.1,0.3c0.3-0.2,0.5-0.4,0.8-0.6c0.3-0.2,0.6-0.4,0.9-0.6 c0.2-0.1,0.5,0,1.2,0.5l0.6,0.4c0,0,0.2-0.1,0.6-0.4c0.7-0.7,0.8-0.7,1.2-0.4s0.6,0.2,0.3-0.4c-0.5-0.6-0.6-1.3-0.6-2 c-0.1-1.1-0.2-1.5-0.4-1.1 M66.3,46.8c0.4,0.5,0.8,0.7,1,0.5c0.1,0,0.1-0.1,0.1-0.2c0-0.4-0.4-0.7-1.1-0.7h-0.4L66.3,46.8  M72.2,46.6c-0.6,0.3-1.1,0.7-1.5,1.2c0,0.1,0.1,0.1,0.3,0c0.4-0.1,0.8,0.1,1,0.5c0,0,0,0,0,0.1c0.1,0.2,0.1,0.5,0.1,0.7 c-0.1,1-0.3,2-0.6,3c-0.3,1.1-0.4,1.5-0.5,1.6s-0.2-0.5-0.3-1.6c0-0.5-0.1-0.9-0.2-1.3c-0.1-0.3-0.3-0.4-0.5-0.4 c-0.2,0.1-0.5,1.1-0.4,1.7c0,0.3,0.1,0.5,0.3,0.4s0.2,0.3,0.3,1.1c0.3,3.1,1.4,7.2,1.8,6.8c0,0,0.1-0.7,0.1-1.6 c0-1.2,0.2-2.3,0.5-3.4c0.4-1.5,0.5-1.8,0.7-2.5c0.2-1,0.3-1.9,0.2-2.9c0-0.3,0-0.6-0.1-0.9c0,0-0.1,0.5-0.2,1.2 c-0.4,2.1-1.4,5.9-1.6,5.8c0-1.3,0.1-2.5,0.4-3.8c0.3-1.2,0.5-2.5,0.4-3.7c0-1.3,0-1.4,0.2-1.7s0.1-0.5,0-0.5 C72.4,46.4,72.3,46.4,72.2,46.6 M68.6,46.5c-0.1,0.1-0.2,0.4-0.2,0.7c0,0.2,0,0.3-0.1,0.5s-0.1,0.2-0.3,0.1c-0.2,0-0.4,0-0.6-0.1 c-0.2,0-0.3,0-0.3,0.1s0.1,0.2,0.2,0.3s0.3,0.2,0.5,0.2c0.4,0,0.7-0.1,1-0.4c0.3-0.2,0.4-0.5,0.4-0.9C69.2,46.6,68.9,46.3,68.6,46.5  M25.3,47c-0.1,0.1-0.1,0.2-0.1,0.3c0,0.3-0.1,0.6-0.3,0.8c-0.4,0.6,0.3,1.4,0.7,0.8c0.1-0.1,0.1-0.2,0.1-0.4s0-0.5,0.1-0.5 s0.4-0.1,0.4-0.3c0-0.3-0.1-0.5-0.3-0.8C25.7,46.8,25.4,46.8,25.3,47 M63.5,47.2c0,0,0,0.1-0.1,0.3s-0.1,0.3-0.3,0.3l-0.6-0.1 c-0.2,0-0.4,0-0.4,0c0,0.3,0.1,0.7,0.3,1c0.3,0.1,0.5,0.1,0.8,0c0.1,0,0.2-0.1,0.2-0.2c0-0.2,0.1-0.2,0.3-0.2c0.2,0,0.5-0.4,0.3-0.8 C63.9,47.3,63.7,47.2,63.5,47.2C63.6,47.1,63.5,47.1,63.5,47.2 M65.3,47.9c0,0.1-0.1,0.3-0.1,0.4c0,0.4,0,0.5-0.4,0.5 s-0.3,0-0.3,0.2c0,0.3,0,0.6,0.2,0.8c0.3,0.3,0.6,0.2,0.6-0.2c0-0.2,0.2-0.3,0.2-0.3c0.1,0.1,0.4-0.1,0.6-0.3 c0.2-0.3,0.2-0.7-0.1-0.9L65.9,48C65.6,47.7,65.4,47.7,65.3,47.9 M44.5,48c-0.2,0.1-0.3,0.3-0.3,0.5c0,0.3,0.1,0.3,0.3,0l0.2-0.2 l0.1,0.1c0.3,0.5-0.1,1.3-0.5,1.2c-0.1,0-0.1,0-0.2,0.1c-0.1,0.7-0.1,1.5,0,2.2h0.1c0,0,0.2-1.2,0.2-1.3s0.1-0.1,0.3,0.2 s0.2,0.7,0.1,1.1c-0.1,0.3-0.3,0.5-0.5,0.5S44,52.6,44,52.7s0.5,0.3,1.7,0.3c0.4,0,0.8,0,1.2,0c-0.2-0.3-0.4-0.5-0.6-0.8 c-0.2-0.3-0.4-0.6-0.6-0.9c0-0.1,0.1-0.3,0.3-0.5c0.5-0.5,0.5-0.6-0.2-1.4s-0.7-1-0.7-1s0.1,0,0.2,0.2s0.3,0.2,0.5-0.1 s0.2-0.4-0.7-0.4C45.1,48,44.8,48,44.5,48 M57.3,48c-0.1,0.2-0.1,0.3,0,0.5c0.2,0.2,0.6-0.2,0.4-0.4C57.6,48,57.4,47.9,57.3,48  M58.8,48.5c-0.8,1.3-0.8,1.4-0.4,1.3c0.4-0.1,0.7-0.4,0.9-0.8c0.3-0.5,0.2-1-0.1-1C59.1,48,59.1,48.1,58.8,48.5 M68.4,48.9 c-0.2,0.2-0.5,0.4-0.7,0.6c0,0.1,0.1,0.1,0.4,0.1s0.5,0,0.7,0.2S69,50,69,50.5c0,1.1-0.7,3.9-1,3.8c0,0-0.1-0.2-0.1-0.3 c0-0.2,0-0.8,0-1.3c0.1-0.5,0-1-0.1-1.4c-0.2-0.5-0.5-0.7-0.7-0.6c-0.1,0-0.1,0.1,0,0.4c0.2,1.4,0.3,2.8,0.2,4.2v2.2L67,57.7 c-0.7,0.4-1.3,0.9-1.9,1.5c0.3,0.4,0.6,0.8,0.9,1.2c0.5,0.6,0.9,1.1,0.9,1.1c-0.2,0-0.4,0-0.5,0c-0.9,0-1,0.1-0.6,0.7s0.4,0.8,0,0.9 c-0.7,0-0.1,0,3,0.1h2.8l0.1,0.6c0,0.2,0,0.4,0.1,0.6c0.1,0.1,0.1-0.1,0.1-0.6c0-0.8,0-0.8-0.9-0.8c-0.6,0-0.7,0-0.7-0.1 c0.1-0.2,0.2-0.4,0.3-0.6c0.1-0.2,0.2-0.4,0.3-0.6c0-0.2-0.2-0.2-0.8-0.2c-0.2,0-0.4,0-0.6-0.1c0,0,0-0.1,0.1-0.2s0.2-0.5-0.1-0.8 s-1-1.3-1.8-2.2l-0.1-0.1l0.7-1.2c0.2-0.4,0.4-0.8,0.7-1.1c0,0,0.1,0.2,0.2,0.5c0.2,0.4,0.7,1,0.8,1s0.2-0.2,0.1-0.5 S70,56.2,70,55.9c-0.1-0.8-0.3-1.3-0.6-1.3c-0.1,0-0.3,0.1-0.5,0.4s-0.4,0.4-0.4,0.4c0.1-0.4,0.2-0.7,0.3-1.1c0.4-1.3,0.6-2.6,0.6-4 c0.1-1.3,0-1.8-0.2-1.8C69,48.6,68.7,48.7,68.4,48.9 M49.1,48.6C49,48.8,49,49,49.2,49.2c0.1,0,0.2,0.1,0.3,0.1 c0.4,0,0.5-0.2,0.2-0.6S49.2,48.4,49.1,48.6 M63.1,49.2c-0.1,0-0.1,0.4,0,0.6c0.2,0.3,0.5,0.5,0.8,0.7c0.3,0.1,0.7-0.2,0.7-0.4 s-0.7-0.7-1.2-0.8C63.3,49.2,63.2,49.2,63.1,49.2 M75.6,49.4c-0.1,0.1-0.2,0.2-0.1,0.4c0.1,0.3,0.2,0.5,0.4,0.6 c0.1,0.1,0.2,0.1,0.3,0c0.1-0.1,0.2-0.2,0.3-0.3c0.1-0.2,0.1-0.2,0-0.4s-0.4-0.4-0.6-0.5C75.8,49.3,75.7,49.3,75.6,49.4 M45.1,49.5 c-0.3,0.5-0.1,1,0.3,1.3c0.2,0.1,0.4,0,0.5-0.2c0.2-0.3,0.2-0.6,0-0.9C45.6,49.3,45.3,49.2,45.1,49.5 M65.3,50.3 c-0.3,0.2-0.7,0.4-1,0.6c0.2,0,0.3,0.1,0.5,0.1c0.6,0,0.8,0.1,0.8,0.3s0,0.5-0.1,0.7c-0.3,1-0.6,2.1-1,3.1c0,0-0.1-0.4-0.1-0.9 c0-1.1-0.4-2.1-1-2.9c-0.1-0.2-0.3-0.3-0.3-0.3l0,0c0,0.1,0,0.3,0.1,0.4c0,0.2,0.2,1,0.2,1.7c0.5,4,0.6,4.7,0.9,5.4 c0.3,0.7,0.5,0.4,0.9-1c0.5-1.7,0.7-1.8,1-0.8s0.4,1.1,0.6,0.4c0-0.8-0.1-1.6-0.4-2.3c-0.2-0.2-0.6,0-1,0.7 c-0.2,0.5-0.5,0.7-0.6,0.7c-0.2-0.1-0.1-0.1,0-0.2c0.7-2,1.1-4.1,1.4-6.2C65.9,49.9,65.6,50.1,65.3,50.3 M58.4,51 c-0.4,0.4-0.5,0.5-0.8,0.4c-0.2,0-0.4,0-0.5,0.1c-0.5,0.2-1,0.4-1.5,0.7c0.2,0.1,0.4,0.1,0.6,0.1c0.6,0.1,0.8,0.2,0.9,0.3 c0,0.1-0.2,0.2-0.8,0.3c-0.5,0-1,0.2-1.4,0.6c-0.4,0.3-0.5,0.5-0.2,0.5c0.3-0.1,0.5-0.1,0.8-0.2c0.2-0.1,0.4-0.1,0.7-0.2 c0,0-0.3,0.3-0.7,0.6c-0.6,0.4-1.2,1-1.7,1.6c-0.1,0.2,0.1,0.3,0.3,0.3c0.6-0.2,1.2-0.6,1.7-1.1c0.7-0.6,0.9-0.8,0.8-0.6 c-0.1,0.4-0.3,0.8-0.4,1.2c0,0.2,0.1,0.2,0.3,0.2s0.4-0.4,0.5-1.2c0-0.6,0.2-1.2,0.7-1.6l0.3-0.3V53c-0.1,0.8-0.1,1,0,1.1 s0.1,0.1,0.2,0.1s0.5-0.4,0.6-0.8c0.2-0.8,0.3-1.5,0.3-2.3v-0.4L58.8,51 M42.3,51.5c-0.3,0.2-0.5,0.6-0.5,1s0.1,0.4,0.2,0.1 c0.3-0.7,0.4-0.8,0.8-0.8c0.2,0,0.3-0.1,0-0.3C42.6,51.3,42.5,51.3,42.3,51.5 M39.4,51.8c-0.1,0.1-0.2,0.2-0.2,0.9s0,1.3,0.1,1.3 c0-0.2,0-0.3,0-0.5c0-0.5,0-1,0.2-1.5c0.3-0.2,0.7-0.1,0.9,0.1c0.1,0.2,0.2,0.1,0.1-0.1c0-0.2-0.3-0.4-0.8-0.4S39.4,51.7,39.4,51.8  M45.1,51.8c-0.2,0.2-0.2,0.5-0.2,0.8c0.2,0,0.3,0,0.5,0c0.7,0,0.8-0.2,0.3-0.7C45.4,51.6,45.3,51.6,45.1,51.8 M60.6,51.9 c-0.5,0.4-0.8,1-0.8,1.6c0,0.7,0.3,1.3,0.6,1.9c0.7,1.3,0.6,1.3-0.7,0.1c-0.3-0.4-0.7-0.6-1.2-0.8c-0.1,0-0.2,0-0.3,0.1 S58,55,58.1,55.4c0,0.5,0.3,1,0.6,1.3c0.4,0.4,1,0.6,1.6,0.7c0.8,0.1,1,0.2,1,0.4s0.5,1.1,0.8,1.1c0.1,0,0.2-0.1,0.3-0.1 c0.1-0.1,0.3-0.2,0.5-0.3c0.6-0.3,0.6-0.8,0-1.5c-0.2-0.3-0.3-0.4-0.1-0.7c0.2-0.5,0.3-1,0.3-1.6s-0.1-0.8-0.3-0.9S62.3,54,62,55.4 c-0.2,0.7-0.3,1-0.4,1c-0.2,0-0.2-0.8-0.1-1.4c0.1-0.5,0.2-0.6,0.4-0.7c0.2-0.1,0.2-0.1,0-0.6c-0.1-0.2-0.1-0.4-0.1-0.7 s0-0.4-0.1-0.5c-0.3-0.3-0.4-0.3-0.4-0.5s-0.1-0.4-0.3-0.4C60.7,51.8,60.6,51.8,60.6,51.9 M76.8,51.9c-0.1,0.1,0.4,0.5,1,0.7 c1,0.6,2.2,1,3.3,1.2c0.2,0,0.2,0,0.2-0.1s-0.2-0.4-0.5-0.6c-0.9-0.4-1.9-0.7-2.9-1C76.9,51.9,76.9,51.9,76.8,51.9 M43.9,53.5 c-0.1,0.5-0.1,1,0,1.5c0.1,0.1,0.1-0.2,0.1-0.9C44.1,53.5,44,53.3,43.9,53.5 M41.8,54c0,0.2,0,0.9,0.1,1.5c0,1.3,0.1,1.2,0.2-0.3 c0.1-1.2,0.1-1.3,1-1.4c0.4-0.1,0.2-0.1-0.5-0.2h-0.8V54 M24.6,53.9C24.6,54,24.6,54,24.6,53.9c0,0.2,0.5,0.4,0.8,0.5 c0.6,0.2,1.2,0.2,1.9,0.3c0.6,0,0.6-0.3-0.1-0.5C26.4,54,25.5,53.9,24.6,53.9 M47.4,54.2c-0.6,0.1-1,0.4-1.3,0.8 c-0.1,0.4-0.2,0.8-0.1,1.2c0,1,0.1,1.2,0.2,0.3s0.3-1.5,0.7-1.6s0.4-0.1,0.8,0.1c0.2,0.1,0.5,0.2,0.8,0.2c0.4,0.1,1.2,0,1.1-0.1 c-0.2-0.1-0.4-0.2-0.6-0.2c-0.6-0.1-1-0.2-0.9-0.3s0.2-0.1,0.3-0.2c0.1-0.1,0.2-0.2,0.2-0.2C48.1,54.2,47.8,54.2,47.4,54.2  M42.7,54.8c-0.2,0.2-0.2,0.4-0.1,0.6c0,0.3,0.1,0.3,0.2,0c0.1-0.2,0.2-0.3,0.3-0.5c0.1-0.1,0.2-0.3,0.2-0.3 C43.1,54.6,42.9,54.6,42.7,54.8 M77.8,55.8c0.2,0.6,0.1,1.2-0.3,1.7c-0.2,0.3-0.2,0.7,0,1.1c0.5,0.6,1,1.2,1.6,1.8 c0-0.2-0.1-0.4-0.2-0.6c-0.3-0.8-0.3-1.1,0-1.5s0.3-1,0-1.4c-0.3-0.5-0.7-1-1.2-1.4C77.8,55.4,77.8,55.5,77.8,55.8 M47,56.2 c-0.1,0.2,0,0.9,0.1,0.9s0.3-0.6,0.3-0.9S47.1,55.9,47,56.2 M74.9,56.2c-0.2,0.2-0.2,0.4,0,0.8l0.2,0.3l-0.3,0.2 c-0.1,0.1-0.2,0.2-0.2,0.3s0.1,0.2,0.2,0.3s0.2,0.2,0.4,0.2c0.4,0,0.5-0.3,0.4-0.9c-0.1-0.4,0-0.6,0.2-0.6s0-0.5-0.4-0.7 C75.1,55.9,75,56,74.9,56.2 M49.3,56.1c-0.1,0.2-0.1,0.5,0,0.8c0.1,0.2,0.3-0.4,0.2-0.7C49.5,56.1,49.4,56,49.3,56.1 M42.6,56.3 c-0.1,0.2-0.1,0.4,0,0.6c0.2,0.1,0.4-0.2,0.4-0.4S42.8,56.1,42.6,56.3 M44.1,56.3c-0.2,0.2-0.1,0.7,0,0.7s0.3-0.4,0.3-0.6 S44.2,56.2,44.1,56.3 M38.8,56.4c-0.5,0.5-0.1,1.6,1,3.4c0.5,0.7,0.9,1.5,1.2,2.3c0.1,0.3,0.1,0.7,0.1,1.1c-0.1,0.1-0.4-0.4-0.6-1.2 c-0.3-1.1-1.1-2.4-1.3-2.3C38.9,59.8,39,60,39,60.6c0,0.4,0.1,0.9,0.3,1.2c0.3,0.7,0.8,1.4,1.4,1.9l0.5,0.4l-0.1,0.2 c-0.2,0.2-0.3,0.4-0.5,0.6c-0.4,0.4-0.7,0.9-0.8,1.4c0,0.4-0.2,0.6-0.6,0.8c-0.4,0-0.6,0-0.6,0.1s0.2,0.1,0.3,0.2 c0.7,0.2,1.2-0.1,1.7-1.2c0.1-0.2,0.2-0.5,0.4-0.7c0.1,0.1,0.1,0.3,0.2,0.4c0.1,0.4,0.2,0.6,0.3,0.3c0.1-0.3,0.2-0.7,0.2-1 c0.2-0.9,0.5-1.7,1.1-2.4c0.5-0.7,1-1.5,1.3-2.3s0.2-1.5-0.2-1.5c-0.2,0-0.6,0.4-0.9,0.8c-0.5,0.8-0.8,1.6-0.9,2.5 c0,0.5-0.1,0.9-0.4,1.3c-0.4,0.4-0.4-1,0-2.3c0.1-0.2,0.2-0.7,0.4-1c0.4-0.9,0.4-2.1-0.2-2.9c-0.2-0.3-0.5-0.5-0.8-0.6 c-0.2,0-0.3,0.1-0.4,0.2c-0.1,0.2-0.1,0.6,0.2,1.9s0.5,2.2,0.3,2.1s-0.4-0.6-0.6-1.6c-0.2-1.1-0.7-2.1-1.4-3 C39,56.2,38.9,56.2,38.8,56.4 M24,56.8c-0.1,0.1-0.1,0.1,0,0.2c0.2,0.4,0.6,0.5,1.8,0.6c0.4,0,0.8,0.1,1.2,0.2 c0.4,0.2,0.5,0.4,0.4,0.7c-0.1,0.4,0,0.9,0.2,1.2c0.3,0.6,0.5,1.3,0.6,2c0,0.4,0.1,0.6,0.7,1.3c0.8,1,0.8,1.4,0,1.5 c-0.7,0.1-0.9,0.3-0.9,1s0.8,1.9,1.1,1.9c0.2,0,0.3-0.1,0.5-0.5c0.2-0.6,0.4-0.6,0.7,0.2s0.4,0.8,0.8,0.9s0.7,0.4,0.9,0.7 c0.1,0.1,0.1,0.2,0,0.3c-0.1,0.1-0.1,0.2,0,0.3c0.7,0.9,1.4,1.7,2.2,2.4c2,2,2.3,2.4,3,4.1l0.4,0.9h0.9c1,0,1.5,0,1.6-0.2 s0.1-0.1,0-0.2s-0.3-0.1-0.8-0.2s-0.7-0.5-1.5-1.7c-0.9-1.5-2-2.8-3.4-3.9c-0.6-0.5-1.1-1-1.5-1.6c-0.1-0.2-0.1-0.3-0.1-0.5 c0-0.4-0.3-0.7-0.8-1c-0.5-0.3-0.7-0.6-0.7-0.9c0-0.1,0-0.3-0.1-0.4c-0.1-0.2-0.1-0.3-0.5-0.6c-0.1-0.1-0.1-0.2-0.1-0.6 s0-0.8-0.5-1.6c-0.3-0.3-0.5-0.7-0.5-1.2c0-0.3-0.1-0.5-0.4-0.8s-0.5-0.8-0.5-1.2s-0.1-0.7-0.2-0.7s-0.2-0.3-0.2-0.6 c0-0.4-0.1-0.9-0.3-1.3c-0.3-0.4-0.8-0.6-1.3-0.6C25.7,56.8,24.8,56.8,24,56.8 M51.8,57.3c-2.4,0.3-4.6,1.4-6.2,3.1 c-1,1-1.9,2.1-2.5,3.4c-1.3,2.6-1.5,5.6-0.7,8.4c0.6,2.2,1.8,4.1,3.6,5.5c1.7,1.5,3.9,2.5,6.2,2.8c1.3,0.1,2.6,0.1,3.8-0.1 c2-0.4,3.9-1.4,5.3-2.8c0.4-0.4,0.8-0.8,0.9-1l0.1-0.2h-0.2c-0.4,0.1-0.7,0.3-1.1,0.4c-0.8,0.4-1.6,0.7-2.4,0.9 c-1.2,0.3-2.5,0.3-3.7,0.1c-3.5-0.7-6.3-3.5-7-7c-0.2-1-0.3-2.1-0.2-3.2c0.3-2,1.2-3.9,2.6-5.4c2.1-2.2,5.2-3.1,8.2-2.3 c0.8,0.2,1.7,0.5,2.4,0.9c0.3,0.2,0.7,0.3,1.1,0.4h0.2v-0.1c-0.1-0.1-0.5-0.5-0.9-1c-1.5-1.5-3.3-2.4-5.3-2.8 C54.5,57.1,53.2,57.1,51.8,57.3 M44.8,57.5c-0.2,0.1-0.2,0.2-0.1,0.3c0.3,0.1,0.5,0.1,0.8,0.1c0.4,0,0.8,0,1.1,0.2 c0.1,0.1,0.3,0.1,0.5,0.2c0.1-0.1-0.3-0.5-0.6-0.6C46,57.5,45.4,57.4,44.8,57.5 M80.5,57.5c-0.1,0.7-0.2,1.3-0.1,2 c0.1,0.6,0.3,0.6,0.7,0.2c0.2-0.3,0.2-0.4,0-0.7s-0.2-0.4,0-0.6c0.1-0.1,0.1-0.2,0.2-0.3c0-0.2,0-0.4-0.2-0.6 C80.9,57.5,80.6,57.5,80.5,57.5 M43,57.9c0.3,0.1,0.7,0.1,1,0.1c0.3-0.1,0-0.2-0.5-0.2S43,57.9,43,57.9 M52.4,57.9 c-1.3,0.2-2.6,0.5-3.8,1.1c-1.1,0.5-2,1.2-2.8,2c-1.6,1.6-2.7,3.6-3.1,5.9c-0.2,1.3-0.2,2.7,0,4c0.6,3.4,2.9,6.3,6,7.8 c2.1,1,4.5,1.4,6.8,1c0.9-0.1,1.7-0.4,2.5-0.9c0.1-0.2,0.1-0.2-0.3-0.1c-1.2,0.1-2.5,0-3.7-0.3c-1.4-0.3-2.6-1-3.7-1.9 C48.6,75,47.4,73,47,70.8c-0.2-1.2-0.2-2.3-0.1-3.5c0.2-1.6,0.8-3.2,1.8-4.5c0.8-1,1.8-1.9,2.9-2.7c1.8-1.1,4-1.5,6.1-1.3 c0.4,0.1,0.4,0,0.3-0.1c-0.8-0.5-1.6-0.8-2.5-0.9C54.6,57.9,53.5,57.8,52.4,57.9 M66.7,58.4c-0.3,0.3-0.3,0.5-0.1,0.6 c0.2,0.1,0.6-0.2,0.5-0.7C67.1,58.1,67,58.2,66.7,58.4 M67.5,58.8c-0.1,0.4,0,0.8,0.3,1.1c0.4,0.3,1.2,0.4,1.2,0.3 c-0.3-0.6-0.8-1.2-1.3-1.6C67.6,58.6,67.5,58.7,67.5,58.8 M76.4,59.9c-0.1,0.4-0.2,0.9-0.2,1.3c-0.1,0.6,0.1,1.1,0.4,1.6 c0.5,0.7,1.1,1.3,1.7,1.8c-0.1-0.3-0.2-0.6-0.4-0.9c-0.5-1.1-0.9-2.4-1.1-3.6c0-0.3-0.1-0.7-0.2-1C76.5,59.4,76.4,59.6,76.4,59.9  M66.2,59.4c-0.1,0.1,0.2,0.5,1,1.3c0.4,0.4,0.7,0.7,0.8,0.7c0.3-0.1,0.2-0.6-0.3-0.8s-0.6-0.4-0.6-0.6c0-0.1-0.1-0.2-0.1-0.3 c-0.1-0.1-0.2-0.2-0.4-0.2C66.5,59.3,66.4,59.4,66.2,59.4 M25.7,60c-0.1,0.1-0.2,0.2-0.3,0.3c-0.1,0.2-0.1,0.2,0,0.3 s0.1,0.1,0.2,0.1s0.2,0.1,0.2,0.2c0.1,0.1,0.1,0.2,0.1,0.5s0,0.4,0.1,0.5c0.2,0.2,0.5,0.2,0.8,0.1c0.2-0.2,0.2-0.4-0.1-0.7 c-0.2-0.2-0.2-0.4-0.2-0.6c0-0.2-0.1-0.4-0.2-0.6C26,59.9,25.9,59.9,25.7,60 M68.7,60.8c-0.1,0.1-0.1,0.4,0,0.4 c0.2,0,0.4-0.1,0.6-0.3C69.3,60.7,68.9,60.6,68.7,60.8 M24.5,60.9c-0.3,0.3-0.3,0.4-0.1,0.7s0.5,0.3,0.7,0c0.1-0.1,0.1-0.2,0.2-0.3 c0-0.2-0.4-0.5-0.5-0.5C24.7,60.8,24.6,60.8,24.5,60.9 M74.8,61.4c-0.3,0.3-0.5,0.7-0.8,1.1c-0.2,0.3-0.1,0.9,0.2,2.3 c0.2,0.8,0.3,1.6,0.3,2.3c0,0.1-0.3,0.3-0.5,0.2s-0.4-0.2-0.6-0.8s-0.3-0.8-0.5-0.4c-0.2,0.6-0.3,1.3-0.3,2c0,0.4,0,0.8-0.1,1.2 c-0.1,0.2-0.2,0.2-0.5,0.4c-0.9,0.5-1,1-0.2,1.4c0.5,0.2,0.5,0.3,0.4,1.7c-0.1,1-0.1,1.3,0.1,1.3c0.1-0.1,0.2-0.1,0.3-0.2 c0.2-0.1,0.3-0.2,0.3-0.2s-0.1,0.4-0.4,1.2c-0.1,0.3-0.2,0.7-0.3,1c-0.1,0.5-0.1,1,0,1.5c0.1-0.1,0.2-0.3,0.3-0.5 c0.3-0.7,0.7-1.4,1.1-2c0.5-0.6,0.7-1.4,0.7-2.2c0-0.7-0.1-1.1-0.3-1.1s-0.4,0.2-0.6,0.5S73.1,72.4,73,72c0-1,0.1-1.9,0.2-2.9 c0.1-0.4,0.2-0.4,0.5-0.3s0.7,0.2,0.9,0s0.3-0.4,0.5-1.3c0-0.3,0.2-0.6,0.6-0.6c0.5,0,0.9-0.4,0.9-0.9c0,0,0,0,0-0.1 c0-0.5-0.2-0.9-0.4-1.3c-0.3-0.3-0.6-0.4-1-0.3c-0.3,0-0.3,0-0.4-0.1s-0.1-0.2-0.1-0.8c0-0.4,0-0.8,0.2-1.2c0.1-0.2,0.2-0.5,0.2-0.7 C75.1,61.3,74.9,61.3,74.8,61.4 M66.2,61.9c0,0.1,0.1,0.3,0.2,0.5c0.3,0.5,0.3,0.6,1.7,0.6s1.7,0,1.9-0.3s0.4-0.7,0.4-0.8 c-1-0.1-2-0.2-3-0.1L66.2,61.9L66.2,61.9 M60.7,63.2c-0.2,0.3-0.7,0.9-1,1.4c-0.8,1.1-1.1,1.5-1.4,1.6c-0.5,0-1-0.1-1.4-0.3 c-0.7-0.3-1.5-0.4-2.2-0.5c-0.1,0.1,0.1,0.4,0.6,1.2c1.5,2.1,1.5,2.1,1.4,2.3s-0.4,0.7-0.8,1.2c-0.4,0.6-0.8,1.2-1.1,1.8 c0,0.1,0,0.1,0.1,0.1c0.7-0.1,1.5-0.3,2.2-0.6c1.5-0.5,1.4-0.5,1.7-0.1c0.2,0.2,0.7,0.8,1.1,1.4c0.9,1.2,1.1,1.4,1.2,1.3 c0.1-0.8,0.2-1.7,0.1-2.6c0-0.8-0.1-1.5,0-1.5l1.3-0.4c0.8-0.2,1.6-0.5,2.3-1c0-0.1-1-0.6-3.1-1.2l-0.5-0.2v-0.6 c0.1-1.3,0.1-2.6,0-3.9C61,62.8,60.8,63,60.7,63.2 M67.1,64.4c-0.3,0.3-0.3,0.9-0.1,1.7c0.1,0.3,0.2,0.6,0.4,0.6s0.2,0.1,0.2,0.3 s0.3,0.6,0.7,0.8l0.4,0.3h-0.4c-0.6,0.1-1.1,0.3-1.5,0.6c-0.6,0.3-1.1,0.9-1.1,1.6c-0.1,0.3,0,0.4,0.3,0.4s0.4-0.1,0.5-0.2 s0.3-0.3,0.6-0.3c0.6,0,1.5-0.7,2.9-2c1-1,1.2-1.2,1.1-2.2c0.1-0.6,0-1.1-0.3-1.6c-0.2-0.3-0.5-0.2-0.7,0c-0.4,0.6-0.6,1.3-0.5,2 c-0.1,1.4-0.2,1.4-0.5,0.1c-0.1-0.7-0.4-1.4-0.9-2c-0.4-0.4-0.6-0.5-0.8-0.2 M59.7,65.7c-0.5,0.8-1,1.2-1.2,1.2s-0.4-0.1-0.6-0.1 c-0.5-0.1-1.1-0.2-1.6-0.3c0.1,0.2,0.3,0.4,0.5,0.6c0.4,0.4,0.6,0.9,0.8,1.4c0,0.3-0.2,0.7-0.8,1.4c-0.3,0.4-0.5,0.7-0.5,0.7 l0.7-0.2c1.3-0.4,1.7-0.4,2.2-0.1c0.3,0.3,0.5,0.5,0.8,0.8l0.5,0.7v-1.2c0-1.3,0.1-1.4,0.5-1.6l1-0.2c0.2-0.1,0.5-0.2,0.7-0.3 c0.1-0.1-0.1-0.2-0.8-0.5s-1-0.4-1.1-0.7c-0.1-0.4-0.1-0.8-0.2-1.3l-0.3-0.9l-0.5,0.8 M33.1,65.3c-0.2,0.3-0.2,0.6,0,0.9 c0.3,0.4,0.8,0,0.7-0.5c0-0.2-0.4-0.6-0.5-0.6S33.1,65.2,33.1,65.3 M66,67c-0.2,0.2-0.2,0.3-0.1,0.6c0.2,0.4,0.6,0.7,1,0.6 c0.2,0,0.4-0.3,0.4-0.4c0-0.3-0.5-0.8-1-0.9C66.2,66.8,66.1,66.9,66,67 M36.2,69c-0.1,0.1-0.2,0.2-0.2,0.3c0,0.2,0.2,0.4,0.4,0.4 c0.1,0,0.3,0.2,0.4,0.5s0.3,0.5,0.5,0.5s0.5-0.2,0.6-0.4c0.1-0.2,0-0.4-0.4-0.5c-0.3-0.1-0.5-0.4-0.5-0.7C37,68.9,36.5,68.8,36.2,69  M69.6,71c-0.1,0.1-0.2,0.2-0.3,0.3c-0.1,0.2-0.1,0.2,0.1,0.3c0.3,0.2,0.9,0,0.9-0.3c0-0.1-0.3-0.4-0.4-0.4S69.7,70.9,69.6,71  M30.4,71.5c-0.1,0,0,0.1,0.2,0.2S31,72,31,72.2s0.1,0.3,0.4,0.4s0.4,0.2,0.3,0.4s0,0.2,0.1,0.2c0.6,0,0.9-0.2,0.6-0.6 c-0.1-0.1-0.2-0.2-0.4-0.3c-0.3-0.2-0.4-0.3-0.4-0.6s0-0.2-0.2-0.2C31.1,71.4,30.8,71.4,30.4,71.5 M68.2,72.8c0,0.1,0,0.2,0,0.3 c0.2,0.9,0.7,1.7,1.2,2.5c0.6,0.9,0.8,1.2,1,1.1s-0.2-1.3-1.1-2.7C68.7,73,68.4,72.6,68.2,72.8 M34.4,76c-0.1,0.1-0.1,0.2-0.1,0.3 c0,0.2,0.1,0.3,0.4,0.4c0.2,0.1,0.3,0.1,0.4,0.3c0.5,0.7,0.8,0.9,1.1,0.7s0.1-0.7-0.4-0.9c-0.3-0.2-0.5-0.3-0.5-0.5S35.1,76,34.8,76 C34.7,75.9,34.5,76,34.4,76"></path></svg>